PathFileType	3	(X/Y/Z)	D:\Vicon Database\Healthy Subjects\S0040\Jan. 30, 2020\Force Plate Walk 6.trc
DataRate	CameraRate	NumFrames	NumMarkers	Units	OrigDataRate	OrigDataStartFrame	OrigNumFrames
100.0	100.0	4	53	mm	100.0	397	350	
Frame#	Time	sternum_cluster1			sternum_cluster2			sternum_cluster3			left_asis			right_asis			left_psis			right_psis			sacrum_cluster1			sacrum_cluster2			sacrum_cluster3			left_lat_femoral_epicondyle			left_anterior_thigh15			left_anterior_thigh25			left_anterior_thigh50			left_lateral_thigh25			left_lateral_thigh50			left_thigh_cluster1			left_thigh_cluster2			left_thigh_cluster3			left_fibular_head			left_tibial_tuberosity			left_anterior_shank30			left_lateral_malleolus			left_shank_cluster1			left_shank_cluster2			left_shank_cluster3			left_heel			left_metatarsal2			left_foot_cluster1			left_foot_cluster2			left_foot_cluster3			right_lat_femoral_epicondyle			right_anterior_thigh15			right_anterior_thigh25			right_anterior_thigh50			right_lateral_thigh25			right_lateral_thigh50			right_thigh_cluster1			right_thigh_cluster2			right_thigh_cluster3			right_fibular_head			right_tibial_tuberosity			right_lateral_distal_shank			right_anterior_shank30			right_lateral_malleolus			right_shank_cluster1			right_shank_cluster2			right_shank_cluster3			right_heel			right_metatarsal2			right_foot_cluster1			right_foot_cluster2			right_foot_cluster3			
		X1	Y1	Z1	X2	Y2	Z2	X3	Y3	Z3	X4	Y4	Z4	X5	Y5	Z5	X6	Y6	Z6	X7	Y7	Z7	X8	Y8	Z8	X9	Y9	Z9	X10	Y10	Z10	X11	Y11	Z11	X12	Y12	Z12	X13	Y13	Z13	X14	Y14	Z14	X15	Y15	Z15	X16	Y16	Z16	X17	Y17	Z17	X18	Y18	Z18	X19	Y19	Z19	X20	Y20	Z20	X21	Y21	Z21	X22	Y22	Z22	X23	Y23	Z23	X24	Y24	Z24	X25	Y25	Z25	X26	Y26	Z26	X27	Y27	Z27	X28	Y28	Z28	X29	Y29	Z29	X30	Y30	Z30	X31	Y31	Z31	X32	Y32	Z32	X33	Y33	Z33	X34	Y34	Z34	X35	Y35	Z35	X36	Y36	Z36	X37	Y37	Z37	X38	Y38	Z38	X39	Y39	Z39	X40	Y40	Z40	X41	Y41	Z41	X42	Y42	Z42	X43	Y43	Z43	X44	Y44	Z44	X45	Y45	Z45	X46	Y46	Z46	X47	Y47	Z47	X48	Y48	Z48	X49	Y49	Z49	X50	Y50	Z50	X51	Y51	Z51	X52	Y52	Z52	X53	Y53	Z53	
397	3.96	1954.4435	1421.2072	-149.1423	1943.3051	1393.457	-139.78893	1941.3875	1396.2329	-177.79448	1974.7273	1046.9155	-31.615679	1965.5712	1044.7124	-280.86404	2138.6919	1060.6853	-80.231705	2134.4631	1065.4586	-198.18304	2144.8757	1120.1138	-145.76149	2150.3855	1095.0975	-158.32927	2155.0659	1089.2184	-119.50682	1865.7515	545.11414	-9.6272278	1812.2732	650.41418	-69.196304	1828.7196	734.92926	-50.666958	1881.774	859.36597	-29.557201	1925.3987	685.46515	14.615043	1974.439	825.87787	43.103642	1959.5264	781.04681	48.474472	1952.3256	752.10754	44.939865	1920.7585	772.82892	48.906776	1829.6632	473.98431	-4.3329282	1776.532	488.13885	-61.214539	1693.4163	251.30171	-69.587868	1683.8182	122.14954	-41.193794	1755.3195	438.94821	-88.289154	1739.123	415.9024	-79.716042	1753.4938	409.66614	-115.16905	1728.3302	52.739853	-82.823959	1544.1312	169.61081	-75.012054	1619.1279	179.91107	-66.805923	1590.1342	177.11319	-57.136127	1589.7913	186.52495	-94.348297	2186.5273	534.76727	-275.72092	2073.5496	586.50879	-220.44205	2020.7136	656.56	-222.20174	1969.9017	780.46906	-241.7496	2119.9397	679.75714	-305.62582	2068.4517	814.78723	-339.34265	2093.9414	767.98181	-342.52533	2091.1055	739.91962	-336.4816	2128.4973	750.73346	-332.27881	2224.021	476.06992	-275.36581	2175.4133	448.27625	-231.62686	2327.3672	224.84419	-254.61647	2277.7268	222.38095	-211.27827	2364.0483	123.23098	-237.13243	2204.4116	391.46994	-175.20578	2218.5757	367.34528	-167.59401	2198.5261	357.89426	-197.0639	2445.7156	102.89835	-201.59953	2230.4167	62.825508	-198.35414	2275.7266	119.78794	-198.8663	2254.2517	102.21014	-189.23904	2254.2456	103.43959	-226.36748
398	3.97	1939.3594	1420.0333	-148.13696	1928.5679	1392.0336	-138.94954	1926.4937	1394.8569	-176.85277	1958.8066	1045.8682	-30.753307	1949.8755	1043.1445	-280.25861	2122.9124	1058.6688	-79.392899	2118.7095	1063.5665	-197.33379	2129.3254	1118.2028	-145.01228	2134.7656	1093.0725	-157.52904	2139.3418	1087.2041	-118.72197	1849.1467	543.8573	-10.061062	1795.0701	650.30426	-67.511017	1811.9276	734.79242	-49.271294	1865.5771	858.93024	-28.680382	1907.7815	684.93939	14.877526	1958.3896	824.96259	43.700153	1943.3877	779.78857	48.981552	1935.572	751.15387	45.497261	1904.3151	771.96149	49.917801	1813.7368	472.27859	-4.9815736	1760.6638	486.36832	-61.537418	1680.78	247.6983	-70.689331	1673.5112	118.53934	-42.468197	1739.5287	436.50177	-88.824501	1723.8207	413.02499	-80.541351	1738.3347	407.10013	-116.10255	1718.3939	49.895565	-84.248177	1533.58	165.22101	-76.329193	1608.3815	175.95659	-68.315491	1579.6925	172.95695	-58.789158	1579.2651	182.26187	-95.98848	2171.8342	533.8042	-275.67355	2058.281	584.92566	-220.38197	2005.1887	654.89227	-222.33243	1954.3611	778.93463	-241.60374	2104.834	678.53229	-305.2547	2053.1248	813.62305	-338.83908	2079.1692	767.15912	-341.89334	2076.2251	738.86877	-335.86661	2113.5732	749.78583	-331.60861	2210.4004	475.66553	-275.43878	2162.4141	446.72745	-231.46471	2320.7942	227.35919	-255.29192	2271.5471	223.70261	-211.31891	2360.1455	126.90133	-238.02991	2193.5161	390.50491	-175.12798	2208.3918	366.71082	-167.77798	2188.4167	356.65808	-197.42758	2442.6316	109.16498	-202.17946	2228.7935	61.825878	-198.87708	2271.8052	120.47167	-199.32524	2251.5525	101.76776	-189.53053	2251.1714	103.47408	-227.01041
399	3.98	1924.9188	1418.666	-147.38075	1913.6019	1390.9583	-138.0056	1911.7113	1393.7247	-176.04964	1942.4402	1044.6783	-29.788383	1933.9415	1041.8336	-279.60855	2106.7939	1057.1436	-78.260147	2102.644	1061.9508	-196.23459	2113.355	1116.4708	-143.80754	2118.6755	1091.3092	-156.3951	2123.0916	1085.3868	-117.6402	1832.3488	542.43622	-10.637999	1778.1016	650.06653	-65.124451	1795.2067	734.07977	-47.69022	1849.3474	857.93677	-27.974691	1890.0217	684.13971	15.1817	1941.9629	823.83856	44.382774	1926.7634	778.58722	49.759056	1918.8154	749.90204	46.098766	1887.7314	771.00641	51.155956	1797.5114	470.51178	-5.6787086	1744.4086	484.08878	-62.554634	1670.0259	242.98076	-72.063278	1665.3159	115.89831	-43.80254	1724.2	433.35074	-89.78772	1708.9648	409.61118	-81.681328	1723.8013	403.91879	-117.05755	1713.3364	50.465382	-84.961128	1524.6321	158.02458	-78.121994	1598.8461	170.92867	-70.729675	1570.2164	167.00919	-60.9333	1569.3868	176.11322	-98.309952	2156.1248	532.73102	-275.65045	2042.032	583.34625	-220.56577	1988.8789	653.41248	-222.56525	1938.3024	777.63525	-241.55202	2089.2561	677.55566	-304.69739	2037.7672	812.83826	-337.80396	2063.5674	766.26404	-341.05807	2060.7759	737.91559	-334.82813	2098.0769	748.83807	-330.78247	2195.6433	475.21893	-275.48068	2148.4111	445.10516	-231.36911	2313.7454	230.62981	-255.67665	2263.835	225.12158	-211.45503	2356.0051	130.85606	-238.37349	2181.4944	389.42755	-175.11845	2197.1101	366.02725	-167.91382	2176.5334	355.98715	-197.29655	2438.7402	115.99785	-202.74379	2227.0029	60.959747	-198.72047	2267.782	120.87629	-199.77185	2247.9106	101.53182	-189.86067	2247.6057	103.00642	-227.36633
400	3.99	1910.1852	1417.7106	-146.47707	1898.8318	1390.1031	-137.04228	1896.7194	1392.9774	-174.8788	1925.6377	1043.7255	-28.796165	1917.6696	1040.8826	-278.84064	2090.0681	1055.5956	-77.027618	2087.0947	1060.8011	-195.12112	2096.9661	1114.9661	-142.4543	2102.2075	1089.7605	-155.02089	2106.594	1083.8599	-116.16776	1815.52	541.03326	-11.060861	1761.6031	649.4162	-62.500134	1778.745	732.67566	-45.931919	1832.8641	856.48529	-27.218651	1872.4833	683.10034	15.526628	1925.2324	822.4762	45.32711	1910.2505	776.97845	50.586395	1901.9867	748.45038	46.867725	1871.1985	769.55334	52.279572	1781.3079	469.00327	-6.1404667	1728.3359	481.26755	-63.598305	1659.8417	238.6963	-73.547806	1658.738	111.70963	-45.197781	1709.679	430.19058	-91.11129	1694.9388	406.0347	-83.114151	1710.4576	400.62039	-118.24439	1709.9254	51.370663	-85.732307	1515.9747	147.84409	-80.128731	1589.1162	164.01532	-73.00219	1560.5804	158.79628	-63.312939	1559.6177	167.42073	-100.83794	2139.3511	531.57098	-275.57175	2024.9608	581.62708	-220.80331	1971.8043	652.05524	-222.89842	1921.8794	776.48755	-241.53876	2072.637	676.40753	-304.51279	2021.8396	812.09216	-336.9874	2047.5797	765.36249	-340.18616	2044.5626	737.20099	-334.24826	2081.7463	747.62183	-330.06195	2180.165	474.84042	-275.83606	2133.3467	443.06403	-231.45532	2305.4766	233.65709	-256.41312	2256.2852	226.77573	-211.1086	2351.041	135.21269	-239.01167	2168.4924	388.23285	-175.15471	2184.7815	365.64929	-167.70023	2164.5662	354.91925	-197.56609	2434.2295	123.94619	-202.93596	2224.7866	60.098858	-199.30458	2262.8801	121.6267	-200.54533	2243.9912	101.4192	-190.37656	2243.5879	102.6005	-227.90433
